<?xml version="1.0" standalone="no"?>
<!DOCTYPE svg PUBLIC "-//W3C//DTD SVG 20010904//EN"
 "http://www.w3.org/TR/2001/REC-SVG-20010904/DTD/svg10.dtd">
<svg version="1.0" xmlns="http://www.w3.org/2000/svg"
 width="59.000000pt" height="69.000000pt" viewBox="0 0 59.000000 69.000000"
 preserveAspectRatio="xMidYMid meet">

<g transform="translate(0.000000,69.000000) scale(0.100000,-0.100000)"
fill="#000000" stroke="none">
<path d="M100 668 c-108 -55 -130 -190 -46 -274 37 -37 103 -58 149 -49 166
35 195 257 43 326 -54 25 -92 24 -146 -3z m92 -47 c8 -10 22 -21 29 -23 22 -7
-1 -28 -32 -28 -37 0 -37 -15 1 -35 43 -22 55 -50 35 -81 -8 -13 -20 -24 -25
-24 -6 0 -10 -7 -10 -15 0 -8 -7 -15 -15 -15 -8 0 -15 5 -15 10 0 6 -12 15
-26 20 -38 15 -25 36 19 32 49 -5 50 21 3 43 -52 25 -59 72 -15 95 10 6 19 17
19 25 0 20 12 19 32 -4z"/>
<path d="M424 516 c-22 -10 -36 -27 -48 -57 -40 -101 -105 -149 -200 -149 -31
0 -71 7 -91 17 -19 9 -38 14 -41 10 -13 -13 -16 -105 -5 -140 7 -20 27 -55 46
-80 18 -24 38 -59 42 -78 9 -33 11 -34 62 -37 45 -3 53 0 58 16 7 27 69 27 76
0 4 -15 16 -18 61 -18 55 0 56 0 56 29 0 20 13 45 40 76 22 26 47 59 55 75 8
15 24 30 35 33 18 5 21 12 18 54 -3 41 -7 50 -30 61 -16 7 -28 17 -28 22 0 5
-16 29 -36 55 -32 42 -34 50 -25 77 17 48 6 56 -45 34z m43 -162 c9 -23 -13
-40 -32 -24 -12 10 -13 16 -4 26 15 18 28 18 36 -2z"/>
</g>
</svg>
