<?xml version="1.0" standalone="no"?>
<!DOCTYPE svg PUBLIC "-//W3C//DTD SVG 20010904//EN"
 "http://www.w3.org/TR/2001/REC-SVG-20010904/DTD/svg10.dtd">
<svg version="1.0" xmlns="http://www.w3.org/2000/svg"
 width="66.000000pt" height="66.000000pt" viewBox="0 0 66.000000 66.000000"
 preserveAspectRatio="xMidYMid meet">

<g transform="translate(0.000000,66.000000) scale(0.100000,-0.100000)"
fill="#000000" stroke="none">
<path d="M254 651 c-53 -14 -135 -64 -170 -104 -59 -70 -78 -122 -78 -217 0
-74 4 -93 28 -142 35 -69 84 -118 156 -155 48 -24 66 -27 140 -27 102 0 160
24 230 94 161 160 118 421 -85 521 -68 33 -160 46 -221 30z m176 -82 c176 -79
214 -303 73 -430 -130 -117 -325 -78 -409 81 -27 52 -26 172 3 225 66 123 214
178 333 124z"/>
<path d="M304 527 c-2 -7 -3 -62 -2 -123 l3 -109 104 -3 c107 -3 126 2 115 31
-5 14 -21 17 -90 17 l-84 0 0 100 c0 94 -1 100 -20 100 -11 0 -23 -6 -26 -13z"/>
</g>
</svg>
