<?xml version="1.0" standalone="no"?>
<!DOCTYPE svg PUBLIC "-//W3C//DTD SVG 20010904//EN"
 "http://www.w3.org/TR/2001/REC-SVG-20010904/DTD/svg10.dtd">
<svg version="1.0" xmlns="http://www.w3.org/2000/svg"
 width="79.000000pt" height="67.000000pt" viewBox="0 0 79.000000 67.000000"
 preserveAspectRatio="xMidYMid meet">

<g transform="translate(0.000000,67.000000) scale(0.100000,-0.100000)"
fill="#000000" stroke="none">
<path d="M248 657 c-54 -16 -119 -56 -161 -101 -84 -89 -108 -244 -55 -357 33
-72 94 -134 167 -168 77 -36 202 -37 274 -2 26 13 50 27 53 32 3 5 -11 31 -30
58 -41 55 -44 71 -18 94 27 24 56 21 93 -10 l32 -27 28 34 c34 40 43 82 36
159 -18 199 -226 342 -419 288z m122 -122 c0 -19 5 -25 23 -25 38 0 50 -14 42
-49 -5 -25 -11 -31 -23 -26 -40 16 -88 17 -101 1 -18 -21 -8 -32 60 -67 47
-23 64 -38 75 -66 22 -51 2 -100 -49 -128 -25 -14 -37 -27 -37 -42 0 -27 -14
-36 -40 -28 -12 4 -20 15 -20 29 0 18 -8 24 -37 32 -35 8 -38 12 -36 42 0 19
3 35 5 37 2 2 24 -3 48 -11 55 -19 93 -7 88 28 -2 16 -19 30 -59 50 -61 29
-89 59 -89 96 0 37 27 78 60 92 21 9 30 19 30 36 0 20 5 24 30 24 25 0 30 -4
30 -25z"/>
<path d="M689 227 c-40 -45 -76 -83 -81 -85 -4 -2 -25 10 -45 27 -39 32 -58
38 -68 21 -7 -11 104 -162 116 -158 10 4 179 247 179 258 0 4 -7 10 -15 13 -9
4 -39 -23 -86 -76z"/>
</g>
</svg>
