<?xml version="1.0" standalone="no"?>
<!DOCTYPE svg PUBLIC "-//W3C//DTD SVG 20010904//EN"
 "http://www.w3.org/TR/2001/REC-SVG-20010904/DTD/svg10.dtd">
<svg version="1.0" xmlns="http://www.w3.org/2000/svg"
 width="65.000000pt" height="62.000000pt" viewBox="0 0 65.000000 62.000000"
 preserveAspectRatio="xMidYMid meet">

<g transform="translate(0.000000,62.000000) scale(0.100000,-0.100000)"
fill="#000000" stroke="none">
<path d="M102 608 c-9 -9 -12 -76 -12 -242 0 -166 3 -227 11 -219 7 7 11 87
12 229 l2 219 117 3 117 3 3 -43 c3 -42 4 -43 41 -46 l37 -3 0 -105 c0 -86 3
-104 15 -104 12 0 15 19 15 113 l0 113 -48 47 -48 47 -125 0 c-84 0 -129 -4
-137 -12z m308 -69 c0 -5 -7 -9 -15 -9 -9 0 -15 9 -15 21 0 18 2 19 15 9 8 -7
15 -16 15 -21z"/>
<path d="M145 470 c-3 -5 0 -13 7 -15 25 -10 253 -1 251 10 -4 14 -249 19
-258 5z"/>
<path d="M12 428 c-18 -18 -17 -401 2 -417 9 -8 87 -11 262 -9 l249 3 62 115
c34 63 61 124 60 135 -2 17 -11 20 -69 23 l-67 3 -3 36 c-4 53 -28 56 -28 4
l0 -41 -139 0 c-104 0 -141 -3 -150 -14 -6 -7 -36 -64 -66 -125 -42 -86 -59
-112 -73 -109 -15 3 -17 21 -20 187 -2 177 -2 183 18 188 12 3 19 11 17 17 -5
16 -40 19 -55 4z"/>
<path d="M147 384 c-20 -20 4 -24 126 -22 170 4 173 22 4 26 -68 1 -126 -1
-130 -4z"/>
<path d="M145 289 c-4 -6 -4 -13 -1 -16 8 -8 36 5 36 17 0 13 -27 13 -35 -1z"/>
</g>
</svg>
